<?xml version="1.0" encoding="iso-8859-1"?>
<!-- Generator: Adobe Illustrator 19.0.0, SVG Export Plug-In . SVG Version: 6.00 Build 0)  -->
<svg version="1.1" id="Layer_1" xmlns="http://www.w3.org/2000/svg" xmlns:xlink="http://www.w3.org/1999/xlink" x="0px" y="0px"
	 viewBox="0 0 496 496" style="enable-background:new 0 0 496 496;" xml:space="preserve">
<g>
	<g>
		<g>
			<path d="M472,32h-72V0H100.688L0,100.688V496h400V192h72c13.232,0,24-10.768,24-24V56C496,42.768,485.232,32,472,32z M96,27.312
				V96H27.312L96,27.312z M384,480H16V112h96V16h272v16H184c-13.232,0-24,10.768-24,24v112c0,13.232,10.768,24,24,24h200V480z
				 M480,168c0,4.416-3.592,8-8,8H184c-4.408,0-8-3.584-8-8V56c0-4.416,3.592-8,8-8h288c4.408,0,8,3.584,8,8V168z"/>
			<path d="M320,64h-32v96h32c26.472,0,48-21.528,48-48S346.472,64,320,64z M320,144h-16V80h16c17.648,0,32,14.352,32,32
				S337.648,144,320,144z"/>
			<rect x="32" y="128" width="16" height="16"/>
			<rect x="64" y="128" width="16" height="16"/>
			<rect x="32" y="160" width="16" height="16"/>
			<polygon points="232,90.664 212,64 192,64 192,160 208,160 208,85.336 232,117.336 256,85.336 256,160 272,160 272,64 252,64 			
				"/>
			<path d="M436,64h-52v96h52c15.44,0,28-12.56,28-28c0-7.832-3.224-14.912-8.424-20c5.2-5.088,8.424-12.168,8.424-20
				C464,76.56,451.44,64,436,64z M436,144h-36v-24h36c6.616,0,12,5.384,12,12C448,138.616,442.616,144,436,144z M436,104h-36V80h36
				c6.616,0,12,5.384,12,12C448,98.616,442.616,104,436,104z"/>
			<path d="M28.688,336l40,40h38.624L120,363.312L132.688,376h30.624L176,363.312L188.688,376h30.104
				c14.296,24.8,40.376,40,69.208,40c44.112,0,80-35.888,80-80s-35.888-80-80-80c-28.832,0-54.912,15.2-69.208,40H68.688L28.688,336
				z M228.528,312l2.208-4.44C241.656,285.624,263.6,272,288,272c35.288,0,64,28.712,64,64c0,35.288-28.712,64-64,64
				c-24.4,0-46.344-13.624-57.264-35.56l-2.208-4.44H195.32L176,340.688L156.688,360h-17.376L120,340.688L100.688,360H75.312l-24-24
				l24-24H228.528z"/>
			<path d="M312,360c13.232,0,24-10.768,24-24s-10.768-24-24-24s-24,10.768-24,24S298.768,360,312,360z M312,328
				c4.408,0,8,3.584,8,8c0,4.416-3.592,8-8,8c-4.408,0-8-3.584-8-8C304,331.584,307.592,328,312,328z"/>
			<rect x="200" y="392" width="16" height="16"/>
			<rect x="168" y="392" width="16" height="16"/>
			<rect x="136" y="392" width="16" height="16"/>
			<rect x="104" y="392" width="16" height="16"/>
			<rect x="72" y="392" width="16" height="16"/>
		</g>
	</g>
</g>
<g>
</g>
<g>
</g>
<g>
</g>
<g>
</g>
<g>
</g>
<g>
</g>
<g>
</g>
<g>
</g>
<g>
</g>
<g>
</g>
<g>
</g>
<g>
</g>
<g>
</g>
<g>
</g>
<g>
</g>
</svg>
