<?xml version="1.0" encoding="iso-8859-1"?>
<!-- Generator: Adobe Illustrator 18.0.0, SVG Export Plug-In . SVG Version: 6.00 Build 0)  -->
<!DOCTYPE svg PUBLIC "-//W3C//DTD SVG 1.1//EN" "http://www.w3.org/Graphics/SVG/1.1/DTD/svg11.dtd">
<svg version="1.1" id="Capa_1" xmlns="http://www.w3.org/2000/svg" xmlns:xlink="http://www.w3.org/1999/xlink" x="0px" y="0px"
	 viewBox="0 0 444.477 444.477" style="enable-background:new 0 0 444.477 444.477;" xml:space="preserve">
<g>
	<path d="M378.581,114.205c0-22.391-18.217-40.608-40.607-40.608h-9.028V33.193C328.945,14.891,314.054,0,295.751,0H148.728
		c-18.303,0-33.193,14.891-33.193,33.193v40.403h-9.031c-22.391,0-40.607,18.217-40.607,40.608v289.664
		c0,22.391,18.217,40.608,40.607,40.608h231.47c22.391,0,40.607-18.217,40.607-40.608V114.205z M85.896,173.037h272.685v171.99
		H85.896V173.037z M135.535,33.193c0-7.275,5.919-13.193,13.193-13.193h147.023c7.274,0,13.193,5.918,13.193,13.193v40.403h-173.41
		V33.193z M106.503,93.597h231.47c11.363,0,20.607,9.245,20.607,20.608v38.833H85.896v-38.833
		C85.896,102.841,95.14,93.597,106.503,93.597z M337.973,424.477h-231.47c-11.363,0-20.607-9.245-20.607-20.608v-38.842h272.685
		v38.842C358.581,415.232,349.336,424.477,337.973,424.477z"/>
	<path d="M335.683,144.492c5.522,0,10-4.477,10-10v-19.499c0-5.523-4.478-10-10-10s-10,4.477-10,10v19.499
		C325.683,140.015,330.161,144.492,335.683,144.492z"/>
	<path d="M335.683,374.738c-5.522,0-10,4.477-10,10v18.281c0,5.523,4.478,10,10,10s10-4.477,10-10v-18.281
		C345.683,379.215,341.206,374.738,335.683,374.738z"/>
	<path d="M262.982,250.709c-1.548-3.737-5.194-6.173-9.239-6.173h-35.864l36.935-36.934c3.905-3.905,3.905-10.237,0-14.143
		c-3.906-3.905-10.236-3.905-14.143,0l-54.005,54.005c-2.859,2.86-3.715,7.162-2.168,10.898c1.548,3.737,5.194,6.173,9.239,6.173
		h35.864l-45.936,45.935c-3.905,3.905-3.905,10.237,0,14.143c1.953,1.953,4.512,2.929,7.071,2.929s5.118-0.977,7.071-2.929
		l63.006-63.006C263.673,258.747,264.529,254.446,262.982,250.709z"/>
</g>
<g>
</g>
<g>
</g>
<g>
</g>
<g>
</g>
<g>
</g>
<g>
</g>
<g>
</g>
<g>
</g>
<g>
</g>
<g>
</g>
<g>
</g>
<g>
</g>
<g>
</g>
<g>
</g>
<g>
</g>
</svg>
